# xmcd
#
# Track frame offsets: 
#        150
#        34687
#        53223
#        87337
#        111423
#        132529
#        160389
#
# Disc length: 2420 seconds
#
# Revision: 0
# Processed by: cddbd v1.5.2PL0 Copyright (c) Steve Scherf et al.
# Submitted via: ExactAudioCopy v0.95b3
#
DISCID=5f097207
DTITLE=Chicago  - Louisville Convention Center, Louisville, KY - Disc 
DTITLE=2
DYEAR=1900
DGENRE=
TTITLE0=Dialogue
TTITLE1=Italian From New York
TTITLE2=Hanky Panky\\Life Saver
TTITLE3=Just You 'N' Me
TTITLE4=I've Been Searching So Long
TTITLE5=25 Or 6 To 4
TTITLE6=(encore) Feelin' Stronger Everyday
EXTD=
EXTT0=
EXTT1=
EXTT2=
EXTT3=
EXTT4=
EXTT5=
EXTT6=
PLAYORDER=
